<svg width="41" height="41" viewBox="0 0 41 41" fill="none" xmlns="http://www.w3.org/2000/svg">
<g clip-path="url(#clip0)">
<path d="M20.5008 40.9996C31.8226 40.9996 41.0006 31.8216 41.0006 20.4998C41.0006 9.17808 31.8226 0 20.5008 0C9.17908 0 0.0010004 9.17808 0.0010004 20.4998C0.0010004 31.8216 9.17908 40.9996 20.5008 40.9996Z" fill="#55ACEE"/>
<path d="M33.0571 14.7326C32.1786 15.1222 31.2336 15.3857 30.2425 15.5033C31.2544 14.8971 32.0309 13.9378 32.3975 12.7929C31.4506 13.3546 30.4015 13.7621 29.2858 13.9817C28.392 13.0297 27.1185 12.4348 25.7083 12.4348C23.0027 12.4348 20.8083 14.6292 20.8083 17.3348C20.8083 17.7189 20.8518 18.0927 20.9358 18.4516C16.8635 18.2473 13.2527 16.2967 10.8357 13.3312C10.414 14.0548 10.1721 14.8971 10.1721 15.7949C10.1721 17.4945 11.0378 18.995 12.3519 19.8735C11.549 19.8483 10.793 19.6279 10.1326 19.2599C10.1323 19.2808 10.1323 19.3016 10.1323 19.322C10.1323 21.6962 11.822 23.6765 14.0632 24.1263C13.6524 24.2389 13.2187 24.2985 12.7725 24.2985C12.456 24.2985 12.1494 24.2681 11.8505 24.2111C12.4739 26.1574 14.2832 27.5742 16.4279 27.614C14.7506 28.9284 12.638 29.7115 10.3417 29.7115C9.94699 29.7115 9.55599 29.6885 9.17338 29.6428C11.3407 31.0337 13.917 31.8446 16.684 31.8446C25.697 31.8446 30.6259 24.3781 30.6259 17.9024C30.6259 17.69 30.6211 17.4785 30.6116 17.2687C31.5698 16.578 32.4004 15.7153 33.0571 14.7326Z" fill="#F1F2F2"/>
</g>
<defs>
<clipPath id="clip0">
<rect width="41" height="41" fill="white"/>
</clipPath>
</defs>
</svg>
