<svg width="122" height="88" viewBox="0 0 122 88" fill="none" xmlns="http://www.w3.org/2000/svg">
<g clip-path="url(#clip0)">
<path d="M120.9 85.7H0.9C0.4 85.7 0 86.1 0 86.6C0 87.1 0.4 87.5 0.9 87.5H120.9C121.4 87.5 121.8 87.1 121.8 86.6C121.8 86.1 121.4 85.7 120.9 85.7Z" fill="#232323"/>
<path d="M121.5 23.1C121.1 22.9 120.5 23 120.3 23.5L113.1 37L113.2 30.9C113.2 30.8 113.3 30.8 113.3 30.7L118.6 16.8C118.8 16.4 118.5 15.9 118.1 15.7C117.6 15.5 117.1 15.8 117 16.2L113.3 25.9L113.4 18.6L119.9 11.3C120.2 10.9 120.2 10.4 119.8 10.1C119.4 9.8 118.9 9.8 118.6 10.2L113.6 15.9L117.9 1.3C118 0.800003 117.8 0.400003 117.3 0.200003C116.8 0.100003 116.4 0.300003 116.2 0.800003L112.4 13.6L109.9 8.7C109.7 8.3 109.2 8.1 108.7 8.3C108.3 8.5 108.1 9 108.3 9.5L111.7 16.2V16.3L104.5 13.6C104 13.4 103.5 13.7 103.4 14.1C103.2 14.5 103.5 15 103.9 15.2L111.7 18.1L111.6 24.4L107.1 18.9C106.8 18.5 106.2 18.5 105.9 18.8C105.5 19.1 105.5 19.6 105.8 20L111.6 27.1L111.4 35.5L108.6 31.4C108.6 31.3 108.7 31.2 108.7 31.1L108.9 26.3C108.9 25.8 108.5 25.4 108.1 25.4C107.6 25.4 107.2 25.8 107.2 26.2L107.1 29L105.2 26.2C104.9 25.8 104.4 25.7 104 26C103.6 26.3 103.5 26.8 103.8 27.2L107.7 33L102.7 30.9C102.3 30.7 101.7 30.9 101.6 31.4C101.4 31.8 101.6 32.3 102.1 32.5L109.5 35.6L111.5 38.6V39.7L107.7 37.4C107.3 37.2 106.7 37.3 106.5 37.7C106.3 38.1 106.4 38.6 106.8 38.9L111.5 41.7L111.4 44.5L100.9 36.9C100.5 36.6 100 36.7 99.7 37.1C99.4 37.5 99.5 38 99.9 38.3L111.4 46.6L111.3 49.5L106.2 45.9C105.8 45.6 105.3 45.7 105 46.1C104.7 46.5 104.8 47 105.2 47.3L111.3 51.6L111.2 54.5H91.2L92.8 46.6C92.9 46.3 92.8 46.1 92.6 45.9C92.4 45.7 92.2 45.6 91.9 45.6H89.1L92.8 31.1C92.9 30.6 92.6 30.2 92.2 30.1C91.7 30 91.3 30.3 91.1 30.7L88.9 39.3V30.3C88.9 29.8 88.5 29.4 88 29.4C87.5 29.4 87.1 29.8 87.1 30.3V39.2L85 30.3C84.9 29.8 84.4 29.6 83.9 29.7C83.4 29.8 83.1 30.3 83.3 30.7L87 45.2H84.2C83.9 45.2 83.7 45.3 83.5 45.5C83.3 45.7 83.3 46 83.3 46.2L84.9 54.1H68.6V15.5C70.2 19.4 72.3 26.7 71.5 36.7C71.5 37.2 71.8 37.6 72.3 37.6C72.8 37.6 73.2 37.3 73.2 36.8C74.4 20.7 68.6 11.6 68.4 11.2C68.2 10.9 67.8 10.7 67.4 10.8C67 10.9 66.8 11.2 66.8 11.6V54.1H54V21.4C56.7 20.6 58.7 16.4 58.6 11.2C58.6 10.7 58.2 10.3 57.7 10.3C57.2 10.3 56.8 10.7 56.8 11.2C56.8 15.4 55.4 18.6 53.9 19.5V11.7C53.9 11.2 53.5 10.8 53 10.8C52.5 10.8 52.1 11.2 52.1 11.7V19.5C50.6 18.6 49.2 15.4 49.2 11.2C49.2 10.7 48.8 10.3 48.3 10.3C47.8 10.3 47.4 10.7 47.4 11.2C47.4 16.4 49.4 20.6 52.1 21.4V54.2H38.1L39.7 46.3C39.8 46 39.7 45.8 39.5 45.6C39.3 45.4 39.1 45.3 38.8 45.3H36L39.7 30.8C39.8 30.3 39.5 29.9 39.1 29.8C38.6 29.7 38.2 30 38 30.4L35.8 39V30C35.8 29.5 35.4 29.1 34.9 29.1C34.4 29.1 34 29.5 34 30V38.9L31.8 30.4C31.7 29.9 31.2 29.7 30.7 29.8C30.2 29.9 29.9 30.4 30.1 30.8L33.8 45.3H31C30.7 45.3 30.5 45.4 30.3 45.6C30.1 45.8 30.1 46.1 30.1 46.3L31.7 54.2H11.5L11.4 51.3L17.5 47C17.9 46.7 18 46.2 17.7 45.8C17.4 45.4 16.9 45.3 16.5 45.6L11.4 49.2L11.3 46.3L22.8 38C23.2 37.7 23.3 37.2 23 36.8C22.7 36.4 22.2 36.3 21.8 36.6L11.3 44.2L11.2 41.4L15.9 38.6C16.3 38.3 16.4 37.8 16.2 37.4C15.9 37 15.4 36.9 15 37.1L11.2 39.4V38.3L13.2 35.3L20.6 32.2C21 32 21.3 31.5 21.1 31.1C20.9 30.7 20.4 30.4 20 30.6L15 32.7L18.9 26.9C19.2 26.5 19.1 26 18.7 25.7C18.3 25.4 17.8 25.5 17.5 25.9L15.6 28.7L15.4 26C15.4 25.5 15 25.2 14.5 25.2C14 25.2 13.6 25.6 13.7 26.1L13.9 30.9C13.9 31 13.9 31.1 14 31.2L11.2 35.3L11 26.9L16.8 19.8C17.1 19.4 17 18.9 16.7 18.6C16.3 18.3 15.8 18.4 15.5 18.7L11 24.2L10.9 18.2V17.9L18.7 15C19.2 14.8 19.4 14.3 19.2 13.9C19 13.5 18.5 13.2 18.1 13.4L10.9 16.1V16L14.3 9.3C14.5 8.9 14.3 8.4 13.9 8.1C13.5 7.9 12.9 8.1 12.7 8.5L10.2 13.5L6.3 0.600003C6.2 0.200003 5.7 -0.0999972 5.2 2.81632e-06C4.7 0.100003 4.5 0.700003 4.7 1.1L9 15.7L4 10C3.6 9.7 3.1 9.6 2.7 9.9C2.3 10.2 2.3 10.8 2.6 11.1L9.1 18.4L9.2 25.7L5.5 16C5.3 15.6 4.8 15.3 4.4 15.5C3.9 15.7 3.7 16.2 3.9 16.6L9.2 30.5C9.2 30.6 9.3 30.7 9.3 30.7L9.4 36.8L2.2 23.4C2 23 1.4 22.9 1 23.1C0.6 23.3 0.4 23.9 0.6 24.3L9.4 40.7C9.4 40.8 9.4 41 9.4 41.1L9.5 46.7L3 35.7C2.8 35.3 2.2 35.1 1.8 35.4C1.4 35.6 1.2 36.2 1.5 36.6L9.6 50.3V50.6C9.5 50.8 9.5 51.1 9.6 51.3L9.7 54.2H0.9C0.4 54.2 0 54.6 0 55C0 55.5 0.4 55.9 0.9 55.9H36.8C36.9 55.9 36.9 55.9 37 55.9C37.1 55.9 37.1 55.9 37.1 55.9H52.9C53 55.9 53 55.9 53.1 55.9C53.2 55.9 53.2 55.9 53.3 55.9H90C90.1 55.9 90.1 55.9 90.2 55.9C90.3 55.9 90.3 55.9 90.3 55.9H120.9C121.4 55.9 121.8 55.5 121.8 55C121.8 54.5 121.4 54.1 120.9 54.1H112.8L112.9 51.2C113 51 113 50.7 112.9 50.5V50.2L120.9 36.5C121.1 36.1 121 35.6 120.6 35.3C120.2 35.1 119.6 35.2 119.4 35.6L112.9 46.6L113 41C113 40.9 113 40.7 113 40.6L121.9 24.2C122.1 23.8 122 23.3 121.5 23.1ZM85.3 47H90.9L89.4 54.2H86.7L85.3 47ZM32.1 47H37.7L36.2 54.2H33.5L32.1 47Z" fill="#232323"/>
<path d="M10.6 66.9C10.9 66.9 11.2 66.8 11.5 66.5C11.7 66.3 11.9 66 11.9 65.6C11.9 65.2 11.8 65 11.5 64.7C11.3 64.5 11 64.3 10.6 64.3H2.70002C2.30002 64.3 2.00002 64.4 1.80002 64.7C1.50002 65 1.40002 65.3 1.40002 65.6V76.2C1.40002 76.6 1.50002 76.9 1.80002 77.1C2.00002 77.4 2.40002 77.5 2.70002 77.5C3.00002 77.5 3.40002 77.4 3.60002 77.1C3.80002 76.8 4.00002 76.8 4.00002 76.4V72.8H8.30002C8.60002 72.8 8.90002 72.7 9.20002 72.4C9.40002 72.2 9.60003 71.9 9.60003 71.5C9.60003 71.2 9.50002 70.9 9.20002 70.6C9.00002 70.4 8.70002 70.2 8.30002 70.2H4.00002V66.7H10.6V66.9Z" fill="#232323"/>
<path d="M28.2 66.9C28.5 66.9 28.8 66.8 29.1 66.5C29.3 66.3 29.5 66 29.5 65.6C29.5 65.2 29.4 65 29.1 64.7C28.9 64.5 28.6 64.3 28.2 64.3H20.2C19.8 64.3 19.5 64.4 19.3 64.7C19 65 18.9 65.3 18.9 65.6V76.1C18.9 76.5 19 76.8 19.3 77C19.6 77.2 19.9 77.4 20.2 77.4H28.4C28.7 77.4 29 77.3 29.3 77C29.5 76.8 29.7 76.5 29.7 76.1C29.7 75.8 29.6 75.5 29.3 75.2C29.1 75 28.8 74.8 28.4 74.8H21.6V71.8H26.6C26.9 71.8 27.2 71.7 27.4 71.5C27.6 71.3 27.7 71 27.7 70.7C27.7 70.4 27.6 70.1 27.4 69.9C27.2 69.7 26.9 69.6 26.6 69.6H21.6V66.6H28.2V66.9Z" fill="#232323"/>
<path d="M38.3 76.6L39.1 74.4H44.9L45.7 76.6C46 77.3 46.5 77.7 47.1 77.7C47.5 77.7 47.8 77.6 48 77.3C48.3 77 48.4 76.7 48.4 76.4C48.4 76.1 48.3 75.9 48.2 75.6L44 65.4C43.8 65 43.6 64.7 43.3 64.5C43 64.2 42.6 64.1 42.1 64.1C41.6 64.1 41.2 64.2 40.9 64.5C40.6 64.8 40.3 65.1 40.2 65.4L35.9 75.5V75.6C35.9 75.7 35.8 75.8 35.8 75.9C35.8 76 35.8 76.2 35.8 76.3C35.8 76.7 35.9 77 36.2 77.2C36.5 77.5 36.8 77.6 37.1 77.6C37.5 77.7 38 77.3 38.3 76.6ZM42 67.2H42.1L44 72H40.1L42 67.2Z" fill="#232323"/>
<path d="M60.1 75.5C59.6 75.5 59.2 75.4 58.7 75.2C58.3 75 58 74.9 57.8 74.7C57.6 74.5 57.4 74.3 57.1 74.1C56.8 73.8 56.4 73.6 56.1 73.6C55.8 73.6 55.5 73.7 55.2 74C55 74.2 54.8 74.5 54.8 74.9C54.8 75.5 55.3 76.2 56.3 76.9C57.3 77.6 58.6 78 60 78C61.8 78 63.2 77.6 64.2 76.8C65.2 76 65.7 75 65.7 73.8C65.7 73.1 65.6 72.6 65.3 72.1C65 71.6 64.6 71.2 64.2 71C63.7 70.7 63.2 70.5 62.7 70.3C62.1 70.1 61.6 69.9 61 69.8C60.4 69.7 59.9 69.5 59.5 69.4C59 69.3 58.7 69.1 58.4 68.9C58.1 68.6 58 68.4 58 68C58 67.6 58.2 67.2 58.6 66.9C59 66.6 59.7 66.5 60.5 66.5C61 66.5 61.4 66.6 61.8 66.7C62.2 66.8 62.4 67 62.6 67.1C62.8 67.2 63 67.4 63.2 67.7C63.5 68 63.9 68.2 64.2 68.2C64.5 68.2 64.8 68.1 65.1 67.8C65.3 67.6 65.5 67.3 65.5 66.9C65.5 66.3 65 65.7 64.1 65C63.2 64.3 62 64.1 60.5 64.1C58.9 64.1 57.6 64.5 56.7 65.3C55.8 66.1 55.2 67 55.2 68C55.2 68.7 55.3 69.2 55.6 69.7C55.9 70.2 56.3 70.6 56.7 70.8C57.2 71.1 57.7 71.3 58.2 71.5C58.8 71.7 59.3 71.9 59.9 72C60.5 72.1 61 72.3 61.4 72.4C61.9 72.5 62.2 72.7 62.5 72.9C62.8 73.1 62.9 73.4 62.9 73.7C63.1 74.9 62.1 75.5 60.1 75.5Z" fill="#232323"/>
<path d="M76.5 77.3C76.7 77.5 77.1 77.7 77.5 77.7C77.9 77.7 78.2 77.6 78.5 77.3C78.7 77.1 78.9 76.7 78.9 76.4V66.9H82.1C82.5 66.9 82.8 66.8 83 66.5C83.3 66.3 83.4 66 83.4 65.6C83.4 65.2 83.3 65 83 64.7C82.8 64.5 82.4 64.3 82.1 64.3H73.1C72.7 64.3 72.4 64.4 72.2 64.7C72 65 71.8 65.2 71.8 65.6C71.8 66 71.9 66.2 72.2 66.5C72.5 66.8 72.8 66.9 73.1 66.9H76.3V76.4C76.1 76.8 76.2 77.1 76.5 77.3Z" fill="#232323"/>
<path d="M99.6 66.9C99.9 66.9 100.2 66.8 100.5 66.5C100.7 66.3 100.9 66 100.9 65.6C100.9 65.2 100.8 65 100.5 64.7C100.3 64.5 100 64.3 99.6 64.3H91.6C91.2 64.3 90.9 64.4 90.7 64.7C90.4 65 90.3 65.3 90.3 65.6V76.1C90.3 76.5 90.4 76.8 90.7 77C91 77.2 91.3 77.4 91.6 77.4H99.8C100.1 77.4 100.4 77.3 100.7 77C100.9 76.8 101.1 76.5 101.1 76.1C101.1 75.8 101 75.5 100.7 75.2C100.5 75 100.2 74.8 99.8 74.8H93V71.8H98C98.3 71.8 98.6 71.7 98.8 71.5C99 71.3 99.1 71 99.1 70.7C99.1 70.4 99 70.1 98.8 69.9C98.6 69.7 98.3 69.6 98 69.6H93V66.6H99.6V66.9Z" fill="#232323"/>
<path d="M113.4 77.6C115.1 77.6 116.6 77.1 117.7 76C118.8 75 119.4 73.7 119.4 72.1V69.9C119.4 68.4 118.8 67.1 117.7 66C116.6 65 115.1 64.4 113.4 64.4H109.6C109.2 64.4 108.9 64.5 108.7 64.8C108.4 65.1 108.3 65.4 108.3 65.7V76.2C108.3 76.6 108.4 76.9 108.7 77.1C109 77.3 109.3 77.5 109.6 77.5H113.4V77.6ZM111 66.9H113.5C114.5 66.9 115.3 67.2 115.9 67.8C116.5 68.4 116.8 69.1 116.8 70V72.2C116.8 73.1 116.5 73.8 115.9 74.4C115.3 75 114.5 75.3 113.5 75.3H111V66.9Z" fill="#232323"/>
</g>
<defs>
<clipPath id="clip0">
<rect width="122" height="87.4" fill="white"/>
</clipPath>
</defs>
</svg>
