<?xml version="1.0" encoding="utf-8"?>
<!-- Generator: Adobe Illustrator 24.3.0, SVG Export Plug-In . SVG Version: 6.00 Build 0)  -->
<svg version="1.2" baseProfile="tiny" id="Layer_1" xmlns="http://www.w3.org/2000/svg" xmlns:xlink="http://www.w3.org/1999/xlink"
	 x="0px" y="0px" viewBox="0 0 122 88" overflow="visible" xml:space="preserve">
<g>
	<path fill="#232323" d="M120.9,85.7H0.9c-0.5,0-0.9,0.4-0.9,0.9s0.4,0.9,0.9,0.9h120c0.5,0,0.9-0.4,0.9-0.9S121.4,85.7,120.9,85.7z
		"/>
	<path fill="#232323" d="M113,40.6l8.9-16.4c0.2-0.4,0.1-0.9-0.4-1.1c-0.4-0.2-1-0.1-1.2,0.4L113.1,37l0.1-6.1
		c0-0.1,0.1-0.1,0.1-0.2l5.3-13.9c0.2-0.4-0.1-0.9-0.5-1.1c-0.5-0.2-1,0.1-1.1,0.5l-3.7,9.7l0.1-7.3l6.5-7.3
		c0.3-0.4,0.3-0.9-0.1-1.2c-0.4-0.3-0.9-0.3-1.2,0.1l-5,5.7l4.3-14.6c0.1-0.5-0.1-0.9-0.6-1.1c-0.5-0.1-0.9,0.1-1.1,0.6l-3.8,12.8
		l-2.5-4.9c-0.2-0.4-0.7-0.6-1.2-0.4c-0.4,0.2-0.6,0.7-0.4,1.2l3.4,6.7v0.1l-7.2-2.7c-0.5-0.2-1,0.1-1.1,0.5
		c-0.2,0.4,0.1,0.9,0.5,1.1l7.8,2.9l-0.1,6.3l-4.5-5.5c-0.3-0.4-0.9-0.4-1.2-0.1c-0.4,0.3-0.4,0.8-0.1,1.2l5.8,7.1l-0.2,8.4
		l-2.8-4.1c0-0.1,0.1-0.2,0.1-0.3l0.2-4.8c0-0.5-0.4-0.9-0.8-0.9c-0.5,0-0.9,0.4-0.9,0.8l-0.1,2.8l-1.9-2.8
		c-0.3-0.4-0.8-0.5-1.2-0.2s-0.5,0.8-0.2,1.2l3.9,5.8l-5-2.1c-0.4-0.2-1,0-1.1,0.5c-0.2,0.4,0,0.9,0.5,1.1l7.4,3.1l2,3v1.1l-3.8-2.3
		c-0.4-0.2-1-0.1-1.2,0.3c-0.2,0.4-0.1,0.9,0.3,1.2l4.7,2.8l-0.1,2.8l-10.5-7.6c-0.4-0.3-0.9-0.2-1.2,0.2c-0.3,0.4-0.2,0.9,0.2,1.2
		l11.5,8.3l-0.1,2.9l-5.1-3.6c-0.4-0.3-0.9-0.2-1.2,0.2c-0.3,0.4-0.2,0.9,0.2,1.2l6.1,4.3l-0.1,2.6l-17.5,0V37.9
		c0-0.1,0-0.2-0.1-0.3l-5.2-13.9C88.4,23.3,88,23,87.7,23c0,0,0,0,0,0c-0.4,0-0.7,0.2-0.8,0.6l-5.1,13.9c0,0.1-0.1,0.2-0.1,0.3v16.2
		l-13.1,0V15.5c1.6,3.9,3.7,11.2,2.9,21.2c0,0.5,0.3,0.9,0.8,0.9s0.9-0.3,0.9-0.8c1.2-16.1-4.6-25.2-4.8-25.6
		c-0.2-0.3-0.6-0.5-1-0.4c-0.4,0.1-0.6,0.4-0.6,0.8v42.5H54V21.4c2.7-0.8,4.7-5,4.6-10.2c0-0.5-0.4-0.9-0.9-0.9s-0.9,0.4-0.9,0.9
		c0,4.2-1.4,7.4-2.9,8.3v-7.8c0-0.5-0.4-0.9-0.9-0.9s-0.9,0.4-0.9,0.9v7.8c-1.5-0.9-2.9-4.1-2.9-8.3c0-0.5-0.4-0.9-0.9-0.9
		s-0.9,0.4-0.9,0.9c0,5.2,2,9.4,4.7,10.2v32.8H41.3V37.9c0-0.1,0-0.2-0.1-0.3l-5.2-13.9c-0.1-0.4-0.5-0.6-0.8-0.6c0,0,0,0,0,0
		c-0.4,0-0.7,0.2-0.8,0.6l-5.1,13.9c0,0.1-0.1,0.2-0.1,0.3v16.3H11.5l-0.1-2.9l6.1-4.3c0.4-0.3,0.5-0.8,0.2-1.2
		c-0.3-0.4-0.8-0.5-1.2-0.2l-5.1,3.6l-0.1-2.9L22.8,38c0.4-0.3,0.5-0.8,0.2-1.2c-0.3-0.4-0.8-0.5-1.2-0.2l-10.5,7.6l-0.1-2.8
		l4.7-2.8c0.4-0.3,0.5-0.8,0.3-1.2c-0.3-0.4-0.8-0.5-1.2-0.3l-3.8,2.3v-1.1l2-3l7.4-3.1c0.4-0.2,0.7-0.7,0.5-1.1
		c-0.2-0.4-0.7-0.7-1.1-0.5l-5,2.1l3.9-5.8c0.3-0.4,0.2-0.9-0.2-1.2c-0.4-0.3-0.9-0.2-1.2,0.2l-1.9,2.8L15.4,26
		c0-0.5-0.4-0.8-0.9-0.8s-0.9,0.4-0.8,0.9l0.2,4.8c0,0.1,0,0.2,0.1,0.3l-2.8,4.1L11,26.9l5.8-7.1c0.3-0.4,0.2-0.9-0.1-1.2
		c-0.4-0.3-0.9-0.2-1.2,0.1L11,24.2l-0.1-6v-0.3l7.8-2.9c0.5-0.2,0.7-0.7,0.5-1.1c-0.2-0.4-0.7-0.7-1.1-0.5l-7.2,2.7V16l3.4-6.7
		c0.2-0.4,0-0.9-0.4-1.2c-0.4-0.2-1,0-1.2,0.4l-2.5,5L6.3,0.6C6.2,0.2,5.7-0.1,5.2,0S4.5,0.7,4.7,1.1L9,15.7L4,10
		C3.6,9.7,3.1,9.6,2.7,9.9c-0.4,0.3-0.4,0.9-0.1,1.2l6.5,7.3l0.1,7.3L5.5,16c-0.2-0.4-0.7-0.7-1.1-0.5c-0.5,0.2-0.7,0.7-0.5,1.1
		l5.3,13.9c0,0.1,0.1,0.2,0.1,0.2l0.1,6.1L2.2,23.4C2,23,1.4,22.9,1,23.1c-0.4,0.2-0.6,0.8-0.4,1.2l8.8,16.4c0,0.1,0,0.3,0,0.4
		l0.1,5.6L3,35.7c-0.2-0.4-0.8-0.6-1.2-0.3c-0.4,0.2-0.6,0.8-0.3,1.2l8.1,13.7v0.3c-0.1,0.2-0.1,0.5,0,0.7l0.1,2.9H0.9
		C0.4,54.2,0,54.6,0,55c0,0.5,0.4,0.9,0.9,0.9h120c0.5,0,0.9-0.4,0.9-0.9s-0.4-0.9-0.9-0.9h-8.1l0.1-2.9c0.1-0.2,0.1-0.5,0-0.7v-0.3
		l8-13.7c0.2-0.4,0.1-0.9-0.3-1.2c-0.4-0.2-1-0.1-1.2,0.3l-6.5,11L113,41C113,40.9,113,40.7,113,40.6z M35.2,26.6l1.2,3.1h-2.3
		L35.2,26.6z M33.5,31.4H37l2,5.5h-7.6L33.5,31.4z M31.1,54.2V38.7h3.3v15.5h-0.9H31.1z M36.2,54.2V38.7h3.3v15.5H36.2L36.2,54.2z
		 M91.9,54.2l-3.3,0V38.7h3.3V54.2z M87.7,26.6l1.2,3.1h-2.3L87.7,26.6z M85.9,31.4h3.6l2,5.5h-7.6L85.9,31.4z M83.5,38.7h3.3v15.4
		l-3.3,0V38.7z"/>
	<path fill="#232323" d="M11.5,66.5c0.2-0.2,0.4-0.5,0.4-0.9c0-0.4-0.1-0.6-0.4-0.9c-0.2-0.2-0.5-0.4-0.9-0.4H2.7
		c-0.4,0-0.7,0.1-0.9,0.4c-0.3,0.3-0.4,0.6-0.4,0.9v10.6c0,0.4,0.1,0.9,0.4,1.1c0.2,0.3,0.6,0.4,0.9,0.4s0.7-0.1,0.9-0.4
		C3.8,77,4,76.8,4,76.4v-3.6h4.3c0.3,0,0.6-0.1,0.9-0.4c0.2-0.2,0.4-0.5,0.4-0.9c0-0.3-0.1-0.6-0.4-0.9c-0.2-0.2-0.5-0.4-0.9-0.4H4
		v-3.3h6.6v0C10.9,66.9,11.2,66.8,11.5,66.5z"/>
	<path fill="#232323" d="M29.1,66.5c0.2-0.2,0.4-0.5,0.4-0.9c0-0.4-0.1-0.6-0.4-0.9c-0.2-0.2-0.5-0.4-0.9-0.4h-8
		c-0.4,0-0.7,0.1-0.9,0.4c-0.3,0.3-0.4,0.6-0.4,0.9v10.5c0,0.4,0.1,0.7,0.4,0.9s0.6,0.4,0.9,0.4h8.2c0.3,0,0.6-0.1,0.9-0.4
		c0.2-0.2,0.4-0.5,0.4-0.9c0-0.3-0.1-0.6-0.4-0.9c-0.2-0.2-0.5-0.4-0.9-0.4h-6.8v-3h5c0.3,0,0.6-0.1,0.8-0.3
		c0.2-0.2,0.3-0.5,0.3-0.8s-0.1-0.6-0.3-0.8c-0.2-0.2-0.5-0.3-0.8-0.3h-5v-2.7h6.6v0C28.5,66.9,28.8,66.8,29.1,66.5z"/>
	<path fill="#232323" d="M37.1,77.6c0.4,0.1,0.9-0.3,1.2-1l0.8-2.2h5.8l0.8,2.2c0.3,0.7,0.8,1.1,1.4,1.1c0.4,0,0.7-0.1,0.9-0.4
		c0.3-0.3,0.4-0.6,0.4-0.9c0-0.3-0.1-0.5-0.2-0.8L44,65.4c-0.2-0.4-0.4-0.7-0.7-0.9c-0.3-0.3-0.7-0.4-1.2-0.4s-0.9,0.1-1.2,0.4
		c-0.3,0.3-0.6,0.6-0.7,0.9l-4.3,10.1v0.1c0,0.1-0.1,0.2-0.1,0.3c0,0.1,0,0.3,0,0.4c0,0.4,0.1,0.7,0.4,0.9
		C36.5,77.5,36.8,77.6,37.1,77.6z M42,67.2L42,67.2l2,4.8h-3.9L42,67.2z"/>
	<path fill="#232323" d="M60.1,75.5c-0.5,0-0.9-0.1-1.4-0.3c-0.4-0.2-0.7-0.3-0.9-0.5s-0.4-0.4-0.7-0.6c-0.3-0.3-0.7-0.5-1-0.5
		c-0.3,0-0.6,0.1-0.9,0.4c-0.2,0.2-0.4,0.5-0.4,0.9c0,0.6,0.5,1.3,1.5,2c1,0.7,2.3,1.1,3.7,1.1c1.8,0,3.2-0.4,4.2-1.2s1.5-1.8,1.5-3
		c0-0.7-0.1-1.2-0.4-1.7s-0.7-0.9-1.1-1.1c-0.5-0.3-1-0.5-1.5-0.7c-0.6-0.2-1.1-0.4-1.7-0.5c-0.6-0.1-1.1-0.3-1.5-0.4
		c-0.5-0.1-0.8-0.3-1.1-0.5C58.1,68.6,58,68.4,58,68s0.2-0.8,0.6-1.1c0.4-0.3,1.1-0.4,1.9-0.4c0.5,0,0.9,0.1,1.3,0.2
		c0.4,0.1,0.6,0.3,0.8,0.4c0.2,0.1,0.4,0.3,0.6,0.6c0.3,0.3,0.7,0.5,1,0.5s0.6-0.1,0.9-0.4c0.2-0.2,0.4-0.5,0.4-0.9
		c0-0.6-0.5-1.2-1.4-1.9c-0.9-0.7-2.1-0.9-3.6-0.9c-1.6,0-2.9,0.4-3.8,1.2c-0.9,0.8-1.5,1.7-1.5,2.7c0,0.7,0.1,1.2,0.4,1.7
		c0.3,0.5,0.7,0.9,1.1,1.1c0.5,0.3,1,0.5,1.5,0.7c0.6,0.2,1.1,0.4,1.7,0.5c0.6,0.1,1.1,0.3,1.5,0.4c0.5,0.1,0.8,0.3,1.1,0.5
		c0.3,0.2,0.4,0.5,0.4,0.8C63.1,74.9,62.1,75.5,60.1,75.5z"/>
	<path fill="#232323" d="M76.5,77.3c0.2,0.2,0.6,0.4,1,0.4s0.7-0.1,1-0.4c0.2-0.2,0.4-0.6,0.4-0.9v-9.5h3.2c0.4,0,0.7-0.1,0.9-0.4
		c0.3-0.2,0.4-0.5,0.4-0.9c0-0.4-0.1-0.6-0.4-0.9c-0.2-0.2-0.6-0.4-0.9-0.4h-9c-0.4,0-0.7,0.1-0.9,0.4s-0.4,0.5-0.4,0.9
		c0,0.4,0.1,0.6,0.4,0.9s0.6,0.4,0.9,0.4h3.2v9.5C76.3,77,76.4,77.1,76.5,77.3z"/>
	<path fill="#232323" d="M100.5,66.5c0.2-0.2,0.4-0.5,0.4-0.9c0-0.4-0.1-0.6-0.4-0.9c-0.2-0.2-0.5-0.4-0.9-0.4h-8
		c-0.4,0-0.7,0.1-0.9,0.4c-0.3,0.3-0.4,0.6-0.4,0.9v10.5c0,0.4,0.1,0.7,0.4,0.9s0.6,0.4,0.9,0.4h8.2c0.3,0,0.6-0.1,0.9-0.4
		c0.2-0.2,0.4-0.5,0.4-0.9c0-0.3-0.1-0.6-0.4-0.9c-0.2-0.2-0.5-0.4-0.9-0.4H93v-3h5c0.3,0,0.6-0.1,0.8-0.3s0.3-0.5,0.3-0.8
		s-0.1-0.6-0.3-0.8c-0.2-0.2-0.5-0.3-0.8-0.3h-5v-2.7h6.6l0,0C99.9,66.9,100.2,66.8,100.5,66.5z"/>
	<path fill="#232323" d="M117.7,76c1.1-1,1.7-2.3,1.7-3.9v-2.2c0-1.5-0.6-2.8-1.7-3.9c-1.1-1-2.6-1.6-4.3-1.6h-3.8
		c-0.4,0-0.7,0.1-0.9,0.4c-0.3,0.3-0.4,0.6-0.4,0.9v10.5c0,0.4,0.1,0.7,0.4,0.9c0.3,0.2,0.6,0.4,0.9,0.4h3.8l0,0
		C115.1,77.5,116.6,77.1,117.7,76z M111,75.3v-8.4h2.5c1,0,1.8,0.3,2.4,0.9c0.6,0.6,0.9,1.3,0.9,2.2v2.2c0,0.9-0.3,1.6-0.9,2.2
		c-0.6,0.6-1.4,0.9-2.4,0.9H111z"/>
</g>
</svg>
