<svg id="Layer_1" data-name="Layer 1" xmlns="http://www.w3.org/2000/svg" viewBox="0 0 158.97 143.56"><defs><style>.cls-1{fill:#353535;}</style></defs><title>logo-main</title><path class="cls-1" d="M24.61,90.29v6.63h8.06c.77,0,1.19.42,1.19,1S33.44,99,32.67,99H24.61v7.35a1,1,0,0,1-1.13,1,1,1,0,0,1-1.13-1V88.68a1,1,0,0,1,1.07-1H34.9c.77,0,1.19.39,1.19,1.07s-.42,1-1.16,1H25.14C24.76,89.75,24.61,89.93,24.61,90.29Z"/><path class="cls-1" d="M49.32,105.16h9.85c.77,0,1.19.36,1.19,1s-.42,1-1.19,1H47.75c-.81,0-1.22-.33-1.22-1V88.74c0-.68.41-1.07,1.22-1.07h11.3c.8,0,1.22.39,1.22,1.07s-.42,1-1.19,1H49.32c-.38,0-.53.18-.53.54v6.06h7.43c.81,0,1.22.39,1.22,1.05s-.41,1-1.22,1H48.79v6.18C48.79,105,48.94,105.16,49.32,105.16Z"/><path class="cls-1" d="M74.42,102l-2,4.67a1.15,1.15,0,0,1-1.1.77,1,1,0,0,1-1.07-1,2.38,2.38,0,0,1,.27-1l7-16.3c.41-1,1-1.61,2-1.61h.12c1,0,1.58.57,2,1.61l7,16.63a2.12,2.12,0,0,1,.15.65,1,1,0,0,1-1.13,1,1.17,1.17,0,0,1-1.07-.77l-2-4.67Zm9.37-2.09L79.63,89.81h-.06L75.32,99.89Z"/><path class="cls-1" d="M113.45,89c.44.3.77.59.77,1.07a1,1,0,0,1-1,1.07,2.17,2.17,0,0,1-1-.33A11.7,11.7,0,0,0,107,89.48c-3.33,0-5.14,1.64-5.14,3.51,0,2.5,2.32,3.1,6,3.87,3.86.77,6.9,1.52,6.9,5.33,0,3.06-3.1,5.41-7.35,5.41a15.14,15.14,0,0,1-7.68-2,1.14,1.14,0,0,1-.59-1,1.18,1.18,0,0,1,1-1.24,2,2,0,0,1,.86.26,13.34,13.34,0,0,0,6.46,1.79c3,0,4.91-1.22,4.91-3.22,0-2.2-2-2.7-5.8-3.45S99.44,97.25,99.44,93c0-2.67,2.46-5.71,7.64-5.71A12.78,12.78,0,0,1,113.45,89Z"/><path class="cls-1" d="M125.1,89.75c-.77,0-1.19-.36-1.19-1s.42-1.07,1.22-1.07h15.5c.8,0,1.22.39,1.22,1s-.42,1-1.19,1H134v16.63a1.13,1.13,0,0,1-2.26,0V89.75Z"/><path class="cls-1" d="M25.69,124.29a.58.58,0,0,1,.64-.57.59.59,0,0,1,.63.56l1.07,5.3h0l1.24-5.13a.85.85,0,0,1,.89-.73.83.83,0,0,1,.91.73l1.28,5.13h0l1-5.3a.63.63,0,0,1,1.26,0,1,1,0,0,1,0,.23l-1.29,5.66a1,1,0,0,1-1,.82,1,1,0,0,1-1-.82l-1.21-4.84h0L29,130.19a1,1,0,0,1-1,.82,1,1,0,0,1-1-.82l-1.29-5.66A2.32,2.32,0,0,1,25.69,124.29Z"/><path class="cls-1" d="M39.55,123.72a.54.54,0,0,1,.59.53v6.23a.6.6,0,0,1-1.19,0v-6.23A.55.55,0,0,1,39.55,123.72Z"/><path class="cls-1" d="M44.47,124.89a.52.52,0,0,1-.58-.54.53.53,0,0,1,.59-.55H50a.52.52,0,0,1,.57.55.51.51,0,0,1-.57.54H47.85v5.59a.6.6,0,0,1-1.19,0v-5.59Z"/><path class="cls-1" d="M55.55,127.93v2.55a.6.6,0,0,1-1.2,0v-6.23a.6.6,0,0,1,1.2,0v2.57h3.63v-2.57a.54.54,0,0,1,.59-.53.55.55,0,0,1,.6.53v6.23a.55.55,0,0,1-.6.53.54.54,0,0,1-.59-.53v-2.55Z"/><path class="cls-1" d="M71.84,125.14v1.91h2.58a.56.56,0,1,1,0,1.11H71.84v2.32a.6.6,0,0,1-1.19,0v-6.17a.48.48,0,0,1,.54-.51h4.13a.52.52,0,0,1,.57.55.51.51,0,0,1-.56.54H72.06C71.9,124.89,71.84,125,71.84,125.14Z"/><path class="cls-1" d="M83.38,128.29,85.11,130a.54.54,0,0,1,.2.42.61.61,0,0,1-.6.58.59.59,0,0,1-.46-.23L82,128.45H80.8v2a.6.6,0,0,1-1.19,0v-6.17a.48.48,0,0,1,.54-.51h2.24c2,0,2.82,1.08,2.82,2.25A2.28,2.28,0,0,1,83.38,128.29Zm-1.08-.91c1.19,0,1.61-.57,1.61-1.25s-.42-1.24-1.61-1.24H81c-.15,0-.22.07-.22.25v2.24Z"/><path class="cls-1" d="M90.13,123.72a.54.54,0,0,1,.59.53v6.23a.6.6,0,0,1-1.19,0v-6.23A.55.55,0,0,1,90.13,123.72Z"/><path class="cls-1" d="M96.72,129.83H100a.55.55,0,1,1,0,1.1H95.89a.52.52,0,0,1-.58-.55v-6a.53.53,0,0,1,.58-.55H100a.52.52,0,0,1,.57.55.51.51,0,0,1-.57.54H96.72c-.15,0-.22.07-.22.25v1.67H99a.54.54,0,1,1,0,1.08H96.5v1.69C96.5,129.77,96.57,129.83,96.72,129.83Z"/><path class="cls-1" d="M110.31,131h0a1,1,0,0,1-.88-.55l-3.46-4.84v4.86a.6.6,0,0,1-1.19,0v-6a.67.67,0,0,1,.66-.72h.07c.37,0,.56.13.91.6l3.45,4.7v-4.78a.6.6,0,0,1,1.2,0v6.12A.68.68,0,0,1,110.31,131Z"/><path class="cls-1" d="M115.62,130.41v-6.1a.49.49,0,0,1,.55-.51h1.56c2.52,0,4,1.48,4,3.55s-1.51,3.58-4,3.58h-1.56A.49.49,0,0,1,115.62,130.41Zm1.41-.58h.87a2.47,2.47,0,1,0,0-4.94H117c-.15,0-.21.07-.21.25v4.44C116.82,129.77,116.88,129.83,117,129.83Z"/><path class="cls-1" d="M130.91,124.25a.67.67,0,0,1,.39.52.55.55,0,0,1-.52.59.84.84,0,0,1-.45-.13,4,4,0,0,0-1.73-.42c-1,0-1.62.47-1.62,1,0,.72.71.91,2,1.16s2.5.54,2.5,2c0,1.14-1.07,2.08-2.85,2.08a5.44,5.44,0,0,1-2.78-.73.58.58,0,0,1-.28-.48.6.6,0,0,1,.56-.62,1,1,0,0,1,.45.14,4.88,4.88,0,0,0,2.12.53c1,0,1.51-.36,1.51-.9s-.57-.75-1.88-1-2.6-.55-2.6-2.14c0-1.11,1-2.17,2.93-2.17A5,5,0,0,1,130.91,124.25Z"/><path class="cls-1" d="M149.48,78.93H9.22a1,1,0,0,1,0-2.05H149.48a1,1,0,0,1,0,2.05Z"/><path class="cls-1" d="M149.48,116.18H9.22a1,1,0,0,1,0-2.05H149.48a1,1,0,0,1,0,2.05Z"/><path class="cls-1" d="M20.62,78.41a1,1,0,0,1-1-1l-.84-46.18,4.16-8.42a1,1,0,0,1,1.38-.46,1,1,0,0,1,.46,1.37l-3.94,8,.82,45.68a1,1,0,0,1-1,1Z"/><path class="cls-1" d="M20.11,34.2a1,1,0,0,1-1-.66,1,1,0,0,1,.6-1.32l9.46-3.55a1,1,0,1,1,.72,1.92l-9.46,3.54A.92.92,0,0,1,20.11,34.2Z"/><path class="cls-1" d="M19.79,32.48a1,1,0,0,1-1-.74L13.64,14.13a1,1,0,0,1,2-.58l5.17,17.62a1,1,0,0,1-.69,1.27A1,1,0,0,1,19.79,32.48Z"/><path class="cls-1" d="M19.84,35.27a1,1,0,0,1-.77-.35L11.27,26a1,1,0,1,1,1.54-1.35l7.8,8.9A1,1,0,0,1,20.52,35,1.05,1.05,0,0,1,19.84,35.27Z"/><path class="cls-1" d="M19.9,49.65a1,1,0,0,1-1-.67L12.76,32.55a1,1,0,0,1,1.92-.72l6.18,16.43a1,1,0,0,1-.6,1.32A1.15,1.15,0,0,1,19.9,49.65Z"/><path class="cls-1" d="M20.38,61.84a1,1,0,0,1-.91-.54L8.94,41.5a1,1,0,0,1,1.81-1l10.53,19.8a1,1,0,0,1-.42,1.38A1.07,1.07,0,0,1,20.38,61.84Z"/><path class="cls-1" d="M20.52,73a1,1,0,0,1-.88-.51L10.1,56.13a1,1,0,1,1,1.77-1l9.54,16.37a1,1,0,0,1-.37,1.4A1,1,0,0,1,20.52,73Z"/><path class="cls-1" d="M19.85,45.46a1,1,0,0,1-.64-.22,1,1,0,0,1-.16-1.44l7.17-8.92a1,1,0,0,1,1.6,1.29l-7.17,8.91A1,1,0,0,1,19.85,45.46Z"/><path class="cls-1" d="M20.44,74.05a1,1,0,0,1-.59-1.86l7.67-5.47a1,1,0,0,1,1.19,1.67L21,73.86A1,1,0,0,1,20.44,74.05Z"/><path class="cls-1" d="M20.7,67.83a1,1,0,0,1-.83-.42A1,1,0,0,1,20.09,66L33.65,56a1,1,0,1,1,1.22,1.65l-13.57,10A1,1,0,0,1,20.7,67.83Z"/><path class="cls-1" d="M19.75,59.6a1,1,0,0,1-.56-.18A1,1,0,0,1,18.9,58l9.65-14.52a1,1,0,0,1,1.71,1.14L20.61,59.14A1,1,0,0,1,19.75,59.6Z"/><path class="cls-1" d="M20.28,62.21a1,1,0,0,1-.88-.49,1,1,0,0,1,.35-1.41l6.06-3.67a1,1,0,1,1,1.06,1.75l-6.06,3.67A1,1,0,0,1,20.28,62.21Z"/><path class="cls-1" d="M25.42,50.25a1,1,0,0,1-1-1l-.27-5.67a1,1,0,1,1,2.05-.09l.26,5.67a1,1,0,0,1-1,1.07Z"/><path class="cls-1" d="M23,54.78a1,1,0,0,1-.94-.62,1,1,0,0,1,.55-1.35l9-3.77a1,1,0,1,1,.79,1.89l-9,3.77A.92.92,0,0,1,23,54.78Z"/><path class="cls-1" d="M139,78.41h0a1,1,0,0,1-1-1l.82-45.68-3.94-8a1,1,0,0,1,.46-1.37,1,1,0,0,1,1.38.46l4.16,8.42v.25L140,77.4A1,1,0,0,1,139,78.41Z"/><path class="cls-1" d="M139.48,34.2a.92.92,0,0,1-.36-.07l-9.46-3.54a1,1,0,0,1,.72-1.92l9.46,3.55a1,1,0,0,1,.6,1.32A1,1,0,0,1,139.48,34.2Z"/><path class="cls-1" d="M139.8,32.48a1,1,0,0,1-.29,0,1,1,0,0,1-.69-1.27L144,13.55a1,1,0,1,1,2,.58l-5.17,17.61A1,1,0,0,1,139.8,32.48Z"/><path class="cls-1" d="M139.75,35.27a1,1,0,0,1-.77-1.7l7.8-8.9A1,1,0,1,1,148.32,26l-7.8,8.9A1,1,0,0,1,139.75,35.27Z"/><path class="cls-1" d="M139.69,49.65a1.15,1.15,0,0,1-.36-.07,1,1,0,0,1-.6-1.32l6.19-16.43a1,1,0,1,1,1.91.72L140.65,49A1,1,0,0,1,139.69,49.65Z"/><path class="cls-1" d="M139.21,61.84a1.07,1.07,0,0,1-.48-.12,1,1,0,0,1-.42-1.38l10.53-19.8a1,1,0,0,1,1.39-.42,1,1,0,0,1,.42,1.38L140.12,61.3A1,1,0,0,1,139.21,61.84Z"/><path class="cls-1" d="M139.07,73a1,1,0,0,1-.52-.14,1,1,0,0,1-.37-1.4l9.54-16.37a1,1,0,1,1,1.77,1L140,72.5A1,1,0,0,1,139.07,73Z"/><path class="cls-1" d="M139.74,45.46a1,1,0,0,1-.79-.38l-7.18-8.91a1,1,0,0,1,1.6-1.29l7.17,8.92a1,1,0,0,1-.15,1.44A1,1,0,0,1,139.74,45.46Z"/><path class="cls-1" d="M139.15,74.05a1,1,0,0,1-.6-.19l-7.67-5.47a1,1,0,0,1,1.19-1.67l7.67,5.47a1,1,0,0,1-.59,1.86Z"/><path class="cls-1" d="M138.89,67.83a1,1,0,0,1-.6-.2l-13.57-10a1,1,0,0,1-.22-1.43,1,1,0,0,1,1.44-.22L139.5,66a1,1,0,0,1,.22,1.43A1,1,0,0,1,138.89,67.83Z"/><path class="cls-1" d="M139.84,59.6a1.06,1.06,0,0,1-.86-.46l-9.65-14.52A1,1,0,0,1,131,43.48L140.69,58a1,1,0,0,1-.29,1.42A1,1,0,0,1,139.84,59.6Z"/><path class="cls-1" d="M139.31,62.21a1,1,0,0,1-.53-.15l-6.06-3.67a1,1,0,1,1,1.06-1.75l6.06,3.67a1,1,0,0,1,.35,1.41A1,1,0,0,1,139.31,62.21Z"/><path class="cls-1" d="M134.17,50.25h0a1,1,0,0,1-1-1.07l.26-5.67a1,1,0,0,1,2.05.09l-.27,5.67A1,1,0,0,1,134.17,50.25Z"/><path class="cls-1" d="M136.64,54.78a.92.92,0,0,1-.4-.08l-9-3.77a1,1,0,1,1,.79-1.89l9,3.77a1,1,0,0,1,.55,1.35A1,1,0,0,1,136.64,54.78Z"/><path class="cls-1" d="M51.45,79a.71.71,0,0,1-.2,0,1,1,0,0,1-.8-1.2l1.89-9.37h-6.6l1.79,8.82a1,1,0,0,1-2,.4l-2-10a1,1,0,0,1,.21-.85,1,1,0,0,1,.79-.38H53.6a1,1,0,0,1,1,1.23L52.46,78.13A1,1,0,0,1,51.45,79Z"/><path class="cls-1" d="M49,68.11h-.12a1,1,0,0,1-.9-1V48.16a1,1,0,0,1,2,0V58.77L52.6,48.65a1,1,0,1,1,2,.49L50,67.33A1,1,0,0,1,49,68.11Z"/><path class="cls-1" d="M49,68.11a1,1,0,0,1-1-.78L43.5,49.14a1,1,0,1,1,2-.49L50,66.83a1,1,0,0,1-.75,1.25A1.07,1.07,0,0,1,49,68.11Z"/><path class="cls-1" d="M113.54,79a.68.68,0,0,1-.2,0,1,1,0,0,1-.8-1.2l1.89-9.37h-6.6l1.78,8.82a1,1,0,1,1-2,.4l-2-10a1,1,0,0,1,1-1.23h9.1a1,1,0,0,1,1,1.23l-2.15,10.59A1,1,0,0,1,113.54,79Z"/><path class="cls-1" d="M111.13,68.11H111a1,1,0,0,1-.89-1V48.16a1,1,0,0,1,2,0V58.77l2.53-10.12a1,1,0,1,1,2,.49l-4.56,18.19A1,1,0,0,1,111.13,68.11Z"/><path class="cls-1" d="M111.13,68.11a1,1,0,0,1-1-.78l-4.56-18.19a1,1,0,1,1,2-.49l4.55,18.18a1,1,0,0,1-.74,1.25A1.07,1.07,0,0,1,111.13,68.11Z"/><path class="cls-1" d="M87.37,78.93a1,1,0,0,1-1-1V26.67a1,1,0,0,1,1.89-.55c.28.45,7,11.23,5.62,30.27a1,1,0,1,1-2-.14c.85-11.85-1.57-20.45-3.42-25.08V77.9A1,1,0,0,1,87.37,78.93Z"/><path class="cls-1" d="M70.29,79a1,1,0,0,1-1-1V26.67a1,1,0,1,1,2,0V78A1,1,0,0,1,70.29,79Z"/><path class="cls-1" d="M70.29,38.27c-3.62,0-6.46-5.35-6.46-12.19a1,1,0,1,1,2,0c0,6,2.32,10.14,4.41,10.14s4.41-4.16,4.41-10.14a1,1,0,1,1,2,0C76.75,32.92,73.91,38.27,70.29,38.27Z"/></svg>